<svg xmlns="http://www.w3.org/2000/svg" viewBox="0 0 262 262" width="262" height="262">
  <rect x="0" y="0" width="262" height="262" rx="6" ry="6" fill="#117865" stroke="#0D5A4C" stroke-width="1.5"/>
  <line x1="11.0" y1="3" x2="11.0" y2="259" stroke="#0D5A4C" stroke-width="1" opacity="0.6"/>
  <line x1="19.0" y1="3" x2="19.0" y2="259" stroke="#0D5A4C" stroke-width="1" opacity="0.6"/>
  <line x1="27.0" y1="3" x2="27.0" y2="259" stroke="#0D5A4C" stroke-width="1" opacity="0.6"/>
  <line x1="35.0" y1="3" x2="35.0" y2="259" stroke="#0D5A4C" stroke-width="1" opacity="0.6"/>
  <line x1="43.0" y1="3" x2="43.0" y2="259" stroke="#0D5A4C" stroke-width="1" opacity="0.6"/>
  <line x1="51.0" y1="3" x2="51.0" y2="259" stroke="#0D5A4C" stroke-width="1" opacity="0.6"/>
  <line x1="59.0" y1="3" x2="59.0" y2="259" stroke="#0D5A4C" stroke-width="1" opacity="0.6"/>
  <line x1="67.0" y1="3" x2="67.0" y2="259" stroke="#0D5A4C" stroke-width="1" opacity="0.6"/>
  <line x1="75.0" y1="3" x2="75.0" y2="259" stroke="#0D5A4C" stroke-width="1" opacity="0.6"/>
  <line x1="83.0" y1="3" x2="83.0" y2="259" stroke="#0D5A4C" stroke-width="1" opacity="0.6"/>
  <line x1="91.0" y1="3" x2="91.0" y2="259" stroke="#0D5A4C" stroke-width="1" opacity="0.6"/>
  <line x1="99.0" y1="3" x2="99.0" y2="259" stroke="#0D5A4C" stroke-width="1" opacity="0.6"/>
  <line x1="107.0" y1="3" x2="107.0" y2="259" stroke="#0D5A4C" stroke-width="1" opacity="0.6"/>
  <line x1="115.0" y1="3" x2="115.0" y2="259" stroke="#0D5A4C" stroke-width="1" opacity="0.6"/>
  <line x1="123.0" y1="3" x2="123.0" y2="259" stroke="#0D5A4C" stroke-width="1" opacity="0.6"/>
  <line x1="131.0" y1="3" x2="131.0" y2="259" stroke="#0D5A4C" stroke-width="1" opacity="0.6"/>
  <line x1="139.0" y1="3" x2="139.0" y2="259" stroke="#0D5A4C" stroke-width="1" opacity="0.6"/>
  <line x1="147.0" y1="3" x2="147.0" y2="259" stroke="#0D5A4C" stroke-width="1" opacity="0.6"/>
  <line x1="155.0" y1="3" x2="155.0" y2="259" stroke="#0D5A4C" stroke-width="1" opacity="0.6"/>
  <line x1="163.0" y1="3" x2="163.0" y2="259" stroke="#0D5A4C" stroke-width="1" opacity="0.6"/>
  <line x1="171.0" y1="3" x2="171.0" y2="259" stroke="#0D5A4C" stroke-width="1" opacity="0.6"/>
  <line x1="179.0" y1="3" x2="179.0" y2="259" stroke="#0D5A4C" stroke-width="1" opacity="0.6"/>
  <line x1="187.0" y1="3" x2="187.0" y2="259" stroke="#0D5A4C" stroke-width="1" opacity="0.6"/>
  <line x1="195.0" y1="3" x2="195.0" y2="259" stroke="#0D5A4C" stroke-width="1" opacity="0.6"/>
  <line x1="203.0" y1="3" x2="203.0" y2="259" stroke="#0D5A4C" stroke-width="1" opacity="0.6"/>
  <line x1="211.0" y1="3" x2="211.0" y2="259" stroke="#0D5A4C" stroke-width="1" opacity="0.6"/>
  <line x1="219.0" y1="3" x2="219.0" y2="259" stroke="#0D5A4C" stroke-width="1" opacity="0.6"/>
  <line x1="227.0" y1="3" x2="227.0" y2="259" stroke="#0D5A4C" stroke-width="1" opacity="0.6"/>
  <line x1="235.0" y1="3" x2="235.0" y2="259" stroke="#0D5A4C" stroke-width="1" opacity="0.6"/>
  <line x1="243.0" y1="3" x2="243.0" y2="259" stroke="#0D5A4C" stroke-width="1" opacity="0.6"/>
  <line x1="251.0" y1="3" x2="251.0" y2="259" stroke="#0D5A4C" stroke-width="1" opacity="0.6"/>
  <line x1="3" y1="11.0" x2="259" y2="11.0" stroke="#0D5A4C" stroke-width="1" opacity="0.6"/>
  <line x1="3" y1="19.0" x2="259" y2="19.0" stroke="#0D5A4C" stroke-width="1" opacity="0.6"/>
  <line x1="3" y1="27.0" x2="259" y2="27.0" stroke="#0D5A4C" stroke-width="1" opacity="0.6"/>
  <line x1="3" y1="35.0" x2="259" y2="35.0" stroke="#0D5A4C" stroke-width="1" opacity="0.6"/>
  <line x1="3" y1="43.0" x2="259" y2="43.0" stroke="#0D5A4C" stroke-width="1" opacity="0.6"/>
  <line x1="3" y1="51.0" x2="259" y2="51.0" stroke="#0D5A4C" stroke-width="1" opacity="0.6"/>
  <line x1="3" y1="59.0" x2="259" y2="59.0" stroke="#0D5A4C" stroke-width="1" opacity="0.6"/>
  <line x1="3" y1="67.0" x2="259" y2="67.0" stroke="#0D5A4C" stroke-width="1" opacity="0.6"/>
  <line x1="3" y1="75.0" x2="259" y2="75.0" stroke="#0D5A4C" stroke-width="1" opacity="0.6"/>
  <line x1="3" y1="83.0" x2="259" y2="83.0" stroke="#0D5A4C" stroke-width="1" opacity="0.6"/>
  <line x1="3" y1="91.0" x2="259" y2="91.0" stroke="#0D5A4C" stroke-width="1" opacity="0.6"/>
  <line x1="3" y1="99.0" x2="259" y2="99.0" stroke="#0D5A4C" stroke-width="1" opacity="0.6"/>
  <line x1="3" y1="107.0" x2="259" y2="107.0" stroke="#0D5A4C" stroke-width="1" opacity="0.6"/>
  <line x1="3" y1="115.0" x2="259" y2="115.0" stroke="#0D5A4C" stroke-width="1" opacity="0.6"/>
  <line x1="3" y1="123.0" x2="259" y2="123.0" stroke="#0D5A4C" stroke-width="1" opacity="0.6"/>
  <line x1="3" y1="131.0" x2="259" y2="131.0" stroke="#0D5A4C" stroke-width="1" opacity="0.6"/>
  <line x1="3" y1="139.0" x2="259" y2="139.0" stroke="#0D5A4C" stroke-width="1" opacity="0.6"/>
  <line x1="3" y1="147.0" x2="259" y2="147.0" stroke="#0D5A4C" stroke-width="1" opacity="0.6"/>
  <line x1="3" y1="155.0" x2="259" y2="155.0" stroke="#0D5A4C" stroke-width="1" opacity="0.6"/>
  <line x1="3" y1="163.0" x2="259" y2="163.0" stroke="#0D5A4C" stroke-width="1" opacity="0.6"/>
  <line x1="3" y1="171.0" x2="259" y2="171.0" stroke="#0D5A4C" stroke-width="1" opacity="0.6"/>
  <line x1="3" y1="179.0" x2="259" y2="179.0" stroke="#0D5A4C" stroke-width="1" opacity="0.6"/>
  <line x1="3" y1="187.0" x2="259" y2="187.0" stroke="#0D5A4C" stroke-width="1" opacity="0.6"/>
  <line x1="3" y1="195.0" x2="259" y2="195.0" stroke="#0D5A4C" stroke-width="1" opacity="0.6"/>
  <line x1="3" y1="203.0" x2="259" y2="203.0" stroke="#0D5A4C" stroke-width="1" opacity="0.6"/>
  <line x1="3" y1="211.0" x2="259" y2="211.0" stroke="#0D5A4C" stroke-width="1" opacity="0.6"/>
  <line x1="3" y1="219.0" x2="259" y2="219.0" stroke="#0D5A4C" stroke-width="1" opacity="0.6"/>
  <line x1="3" y1="227.0" x2="259" y2="227.0" stroke="#0D5A4C" stroke-width="1" opacity="0.6"/>
  <line x1="3" y1="235.0" x2="259" y2="235.0" stroke="#0D5A4C" stroke-width="1" opacity="0.6"/>
  <line x1="3" y1="243.0" x2="259" y2="243.0" stroke="#0D5A4C" stroke-width="1" opacity="0.6"/>
  <line x1="3" y1="251.0" x2="259" y2="251.0" stroke="#0D5A4C" stroke-width="1" opacity="0.6"/>
</svg>