<svg xmlns="http://www.w3.org/2000/svg" viewBox="0 0 230 118" width="230" height="118">
  <rect x="0" y="0" width="230" height="118" rx="6" ry="6" fill="#117865" stroke="#0D5A4C" stroke-width="1.5"/>
  <line x1="17.0" y1="3" x2="17.0" y2="115" stroke="#0D5A4C" stroke-width="1" opacity="0.6"/>
  <line x1="31.0" y1="3" x2="31.0" y2="115" stroke="#0D5A4C" stroke-width="1" opacity="0.6"/>
  <line x1="45.0" y1="3" x2="45.0" y2="115" stroke="#0D5A4C" stroke-width="1" opacity="0.6"/>
  <line x1="59.0" y1="3" x2="59.0" y2="115" stroke="#0D5A4C" stroke-width="1" opacity="0.6"/>
  <line x1="73.0" y1="3" x2="73.0" y2="115" stroke="#0D5A4C" stroke-width="1" opacity="0.6"/>
  <line x1="87.0" y1="3" x2="87.0" y2="115" stroke="#0D5A4C" stroke-width="1" opacity="0.6"/>
  <line x1="101.0" y1="3" x2="101.0" y2="115" stroke="#0D5A4C" stroke-width="1" opacity="0.6"/>
  <line x1="115.0" y1="3" x2="115.0" y2="115" stroke="#0D5A4C" stroke-width="1" opacity="0.6"/>
  <line x1="129.0" y1="3" x2="129.0" y2="115" stroke="#0D5A4C" stroke-width="1" opacity="0.6"/>
  <line x1="143.0" y1="3" x2="143.0" y2="115" stroke="#0D5A4C" stroke-width="1" opacity="0.6"/>
  <line x1="157.0" y1="3" x2="157.0" y2="115" stroke="#0D5A4C" stroke-width="1" opacity="0.6"/>
  <line x1="171.0" y1="3" x2="171.0" y2="115" stroke="#0D5A4C" stroke-width="1" opacity="0.6"/>
  <line x1="185.0" y1="3" x2="185.0" y2="115" stroke="#0D5A4C" stroke-width="1" opacity="0.6"/>
  <line x1="199.0" y1="3" x2="199.0" y2="115" stroke="#0D5A4C" stroke-width="1" opacity="0.6"/>
  <line x1="213.0" y1="3" x2="213.0" y2="115" stroke="#0D5A4C" stroke-width="1" opacity="0.6"/>
  <line x1="3" y1="17.0" x2="227" y2="17.0" stroke="#0D5A4C" stroke-width="1" opacity="0.6"/>
  <line x1="3" y1="31.0" x2="227" y2="31.0" stroke="#0D5A4C" stroke-width="1" opacity="0.6"/>
  <line x1="3" y1="45.0" x2="227" y2="45.0" stroke="#0D5A4C" stroke-width="1" opacity="0.6"/>
  <line x1="3" y1="59.0" x2="227" y2="59.0" stroke="#0D5A4C" stroke-width="1" opacity="0.6"/>
  <line x1="3" y1="73.0" x2="227" y2="73.0" stroke="#0D5A4C" stroke-width="1" opacity="0.6"/>
  <line x1="3" y1="87.0" x2="227" y2="87.0" stroke="#0D5A4C" stroke-width="1" opacity="0.6"/>
  <line x1="3" y1="101.0" x2="227" y2="101.0" stroke="#0D5A4C" stroke-width="1" opacity="0.6"/>
</svg>