<svg xmlns="http://www.w3.org/2000/svg" viewBox="0 0 20 640" width="20" height="640">
  <!-- F64 as a single width bar: 64 CU blocks stacked vertically -->
  <defs>
    <style>
      .cu-block { fill: #0078D4; stroke: #ffffff; stroke-width: 0.5; }
    </style>
  </defs>

  <!-- 64 capacity units stacked vertically, each 10px high -->
  <g id="f64-bar">
    <!-- Generate 64 blocks -->
    <rect class="cu-block" x="0" y="0" width="20" height="10" />
    <rect class="cu-block" x="0" y="10" width="20" height="10" />
    <rect class="cu-block" x="0" y="20" width="20" height="10" />
    <rect class="cu-block" x="0" y="30" width="20" height="10" />
    <rect class="cu-block" x="0" y="40" width="20" height="10" />
    <rect class="cu-block" x="0" y="50" width="20" height="10" />
    <rect class="cu-block" x="0" y="60" width="20" height="10" />
    <rect class="cu-block" x="0" y="70" width="20" height="10" />
    <rect class="cu-block" x="0" y="80" width="20" height="10" />
    <rect class="cu-block" x="0" y="90" width="20" height="10" />
    <rect class="cu-block" x="0" y="100" width="20" height="10" />
    <rect class="cu-block" x="0" y="110" width="20" height="10" />
    <rect class="cu-block" x="0" y="120" width="20" height="10" />
    <rect class="cu-block" x="0" y="130" width="20" height="10" />
    <rect class="cu-block" x="0" y="140" width="20" height="10" />
    <rect class="cu-block" x="0" y="150" width="20" height="10" />
    <rect class="cu-block" x="0" y="160" width="20" height="10" />
    <rect class="cu-block" x="0" y="170" width="20" height="10" />
    <rect class="cu-block" x="0" y="180" width="20" height="10" />
    <rect class="cu-block" x="0" y="190" width="20" height="10" />
    <rect class="cu-block" x="0" y="200" width="20" height="10" />
    <rect class="cu-block" x="0" y="210" width="20" height="10" />
    <rect class="cu-block" x="0" y="220" width="20" height="10" />
    <rect class="cu-block" x="0" y="230" width="20" height="10" />
    <rect class="cu-block" x="0" y="240" width="20" height="10" />
    <rect class="cu-block" x="0" y="250" width="20" height="10" />
    <rect class="cu-block" x="0" y="260" width="20" height="10" />
    <rect class="cu-block" x="0" y="270" width="20" height="10" />
    <rect class="cu-block" x="0" y="280" width="20" height="10" />
    <rect class="cu-block" x="0" y="290" width="20" height="10" />
    <rect class="cu-block" x="0" y="300" width="20" height="10" />
    <rect class="cu-block" x="0" y="310" width="20" height="10" />
    <rect class="cu-block" x="0" y="320" width="20" height="10" />
    <rect class="cu-block" x="0" y="330" width="20" height="10" />
    <rect class="cu-block" x="0" y="340" width="20" height="10" />
    <rect class="cu-block" x="0" y="350" width="20" height="10" />
    <rect class="cu-block" x="0" y="360" width="20" height="10" />
    <rect class="cu-block" x="0" y="370" width="20" height="10" />
    <rect class="cu-block" x="0" y="380" width="20" height="10" />
    <rect class="cu-block" x="0" y="390" width="20" height="10" />
    <rect class="cu-block" x="0" y="400" width="20" height="10" />
    <rect class="cu-block" x="0" y="410" width="20" height="10" />
    <rect class="cu-block" x="0" y="420" width="20" height="10" />
    <rect class="cu-block" x="0" y="430" width="20" height="10" />
    <rect class="cu-block" x="0" y="440" width="20" height="10" />
    <rect class="cu-block" x="0" y="450" width="20" height="10" />
    <rect class="cu-block" x="0" y="460" width="20" height="10" />
    <rect class="cu-block" x="0" y="470" width="20" height="10" />
    <rect class="cu-block" x="0" y="480" width="20" height="10" />
    <rect class="cu-block" x="0" y="490" width="20" height="10" />
    <rect class="cu-block" x="0" y="500" width="20" height="10" />
    <rect class="cu-block" x="0" y="510" width="20" height="10" />
    <rect class="cu-block" x="0" y="520" width="20" height="10" />
    <rect class="cu-block" x="0" y="530" width="20" height="10" />
    <rect class="cu-block" x="0" y="540" width="20" height="10" />
    <rect class="cu-block" x="0" y="550" width="20" height="10" />
    <rect class="cu-block" x="0" y="560" width="20" height="10" />
    <rect class="cu-block" x="0" y="570" width="20" height="10" />
    <rect class="cu-block" x="0" y="580" width="20" height="10" />
    <rect class="cu-block" x="0" y="590" width="20" height="10" />
    <rect class="cu-block" x="0" y="600" width="20" height="10" />
    <rect class="cu-block" x="0" y="610" width="20" height="10" />
    <rect class="cu-block" x="0" y="620" width="20" height="10" />
    <rect class="cu-block" x="0" y="630" width="20" height="10" />
  </g>
</svg>
