<svg xmlns="http://www.w3.org/2000/svg" viewBox="0 0 300 640" width="300" height="640">
  <!-- F64 expanded over 30 seconds: 64 CUs (height) x 30 seconds (width) -->
  <defs>
    <style>
      .cu-cell { fill: #0078D4; stroke: #ffffff; stroke-width: 0.5; }
      .time-label { font-family: 'Segoe UI', Arial, sans-serif; font-size: 8px; fill: #605E5C; }
      .cu-label { font-family: 'Segoe UI', Arial, sans-serif; font-size: 8px; fill: #605E5C; }
    </style>
  </defs>

  <!-- Grid: 30 columns (seconds) x 64 rows (CUs) -->
  <!-- Each cell is 10px x 10px -->
  <g id="f64-30sec-grid">
    <!-- Generate 30 x 64 = 1920 cells -->
    <!-- Columns (time in seconds) -->
    <g id="column-0"><rect class="cu-cell" x="0" y="0" width="10" height="10"/><rect class="cu-cell" x="0" y="10" width="10" height="10"/><rect class="cu-cell" x="0" y="20" width="10" height="10"/><rect class="cu-cell" x="0" y="30" width="10" height="10"/><rect class="cu-cell" x="0" y="40" width="10" height="10"/><rect class="cu-cell" x="0" y="50" width="10" height="10"/><rect class="cu-cell" x="0" y="60" width="10" height="10"/><rect class="cu-cell" x="0" y="70" width="10" height="10"/><rect class="cu-cell" x="0" y="80" width="10" height="10"/><rect class="cu-cell" x="0" y="90" width="10" height="10"/><rect class="cu-cell" x="0" y="100" width="10" height="10"/><rect class="cu-cell" x="0" y="110" width="10" height="10"/><rect class="cu-cell" x="0" y="120" width="10" height="10"/><rect class="cu-cell" x="0" y="130" width="10" height="10"/><rect class="cu-cell" x="0" y="140" width="10" height="10"/><rect class="cu-cell" x="0" y="150" width="10" height="10"/><rect class="cu-cell" x="0" y="160" width="10" height="10"/><rect class="cu-cell" x="0" y="170" width="10" height="10"/><rect class="cu-cell" x="0" y="180" width="10" height="10"/><rect class="cu-cell" x="0" y="190" width="10" height="10"/><rect class="cu-cell" x="0" y="200" width="10" height="10"/><rect class="cu-cell" x="0" y="210" width="10" height="10"/><rect class="cu-cell" x="0" y="220" width="10" height="10"/><rect class="cu-cell" x="0" y="230" width="10" height="10"/><rect class="cu-cell" x="0" y="240" width="10" height="10"/><rect class="cu-cell" x="0" y="250" width="10" height="10"/><rect class="cu-cell" x="0" y="260" width="10" height="10"/><rect class="cu-cell" x="0" y="270" width="10" height="10"/><rect class="cu-cell" x="0" y="280" width="10" height="10"/><rect class="cu-cell" x="0" y="290" width="10" height="10"/><rect class="cu-cell" x="0" y="300" width="10" height="10"/><rect class="cu-cell" x="0" y="310" width="10" height="10"/><rect class="cu-cell" x="0" y="320" width="10" height="10"/><rect class="cu-cell" x="0" y="330" width="10" height="10"/><rect class="cu-cell" x="0" y="340" width="10" height="10"/><rect class="cu-cell" x="0" y="350" width="10" height="10"/><rect class="cu-cell" x="0" y="360" width="10" height="10"/><rect class="cu-cell" x="0" y="370" width="10" height="10"/><rect class="cu-cell" x="0" y="380" width="10" height="10"/><rect class="cu-cell" x="0" y="390" width="10" height="10"/><rect class="cu-cell" x="0" y="400" width="10" height="10"/><rect class="cu-cell" x="0" y="410" width="10" height="10"/><rect class="cu-cell" x="0" y="420" width="10" height="10"/><rect class="cu-cell" x="0" y="430" width="10" height="10"/><rect class="cu-cell" x="0" y="440" width="10" height="10"/><rect class="cu-cell" x="0" y="450" width="10" height="10"/><rect class="cu-cell" x="0" y="460" width="10" height="10"/><rect class="cu-cell" x="0" y="470" width="10" height="10"/><rect class="cu-cell" x="0" y="480" width="10" height="10"/><rect class="cu-cell" x="0" y="490" width="10" height="10"/><rect class="cu-cell" x="0" y="500" width="10" height="10"/><rect class="cu-cell" x="0" y="510" width="10" height="10"/><rect class="cu-cell" x="0" y="520" width="10" height="10"/><rect class="cu-cell" x="0" y="530" width="10" height="10"/><rect class="cu-cell" x="0" y="540" width="10" height="10"/><rect class="cu-cell" x="0" y="550" width="10" height="10"/><rect class="cu-cell" x="0" y="560" width="10" height="10"/><rect class="cu-cell" x="0" y="570" width="10" height="10"/><rect class="cu-cell" x="0" y="580" width="10" height="10"/><rect class="cu-cell" x="0" y="590" width="10" height="10"/><rect class="cu-cell" x="0" y="600" width="10" height="10"/><rect class="cu-cell" x="0" y="610" width="10" height="10"/><rect class="cu-cell" x="0" y="620" width="10" height="10"/><rect class="cu-cell" x="0" y="630" width="10" height="10"/></g>
    <g id="column-1"><rect class="cu-cell" x="10" y="0" width="10" height="10"/><rect class="cu-cell" x="10" y="10" width="10" height="10"/><rect class="cu-cell" x="10" y="20" width="10" height="10"/><rect class="cu-cell" x="10" y="30" width="10" height="10"/><rect class="cu-cell" x="10" y="40" width="10" height="10"/><rect class="cu-cell" x="10" y="50" width="10" height="10"/><rect class="cu-cell" x="10" y="60" width="10" height="10"/><rect class="cu-cell" x="10" y="70" width="10" height="10"/><rect class="cu-cell" x="10" y="80" width="10" height="10"/><rect class="cu-cell" x="10" y="90" width="10" height="10"/><rect class="cu-cell" x="10" y="100" width="10" height="10"/><rect class="cu-cell" x="10" y="110" width="10" height="10"/><rect class="cu-cell" x="10" y="120" width="10" height="10"/><rect class="cu-cell" x="10" y="130" width="10" height="10"/><rect class="cu-cell" x="10" y="140" width="10" height="10"/><rect class="cu-cell" x="10" y="150" width="10" height="10"/><rect class="cu-cell" x="10" y="160" width="10" height="10"/><rect class="cu-cell" x="10" y="170" width="10" height="10"/><rect class="cu-cell" x="10" y="180" width="10" height="10"/><rect class="cu-cell" x="10" y="190" width="10" height="10"/><rect class="cu-cell" x="10" y="200" width="10" height="10"/><rect class="cu-cell" x="10" y="210" width="10" height="10"/><rect class="cu-cell" x="10" y="220" width="10" height="10"/><rect class="cu-cell" x="10" y="230" width="10" height="10"/><rect class="cu-cell" x="10" y="240" width="10" height="10"/><rect class="cu-cell" x="10" y="250" width="10" height="10"/><rect class="cu-cell" x="10" y="260" width="10" height="10"/><rect class="cu-cell" x="10" y="270" width="10" height="10"/><rect class="cu-cell" x="10" y="280" width="10" height="10"/><rect class="cu-cell" x="10" y="290" width="10" height="10"/><rect class="cu-cell" x="10" y="300" width="10" height="10"/><rect class="cu-cell" x="10" y="310" width="10" height="10"/><rect class="cu-cell" x="10" y="320" width="10" height="10"/><rect class="cu-cell" x="10" y="330" width="10" height="10"/><rect class="cu-cell" x="10" y="340" width="10" height="10"/><rect class="cu-cell" x="10" y="350" width="10" height="10"/><rect class="cu-cell" x="10" y="360" width="10" height="10"/><rect class="cu-cell" x="10" y="370" width="10" height="10"/><rect class="cu-cell" x="10" y="380" width="10" height="10"/><rect class="cu-cell" x="10" y="390" width="10" height="10"/><rect class="cu-cell" x="10" y="400" width="10" height="10"/><rect class="cu-cell" x="10" y="410" width="10" height="10"/><rect class="cu-cell" x="10" y="420" width="10" height="10"/><rect class="cu-cell" x="10" y="430" width="10" height="10"/><rect class="cu-cell" x="10" y="440" width="10" height="10"/><rect class="cu-cell" x="10" y="450" width="10" height="10"/><rect class="cu-cell" x="10" y="460" width="10" height="10"/><rect class="cu-cell" x="10" y="470" width="10" height="10"/><rect class="cu-cell" x="10" y="480" width="10" height="10"/><rect class="cu-cell" x="10" y="490" width="10" height="10"/><rect class="cu-cell" x="10" y="500" width="10" height="10"/><rect class="cu-cell" x="10" y="510" width="10" height="10"/><rect class="cu-cell" x="10" y="520" width="10" height="10"/><rect class="cu-cell" x="10" y="530" width="10" height="10"/><rect class="cu-cell" x="10" y="540" width="10" height="10"/><rect class="cu-cell" x="10" y="550" width="10" height="10"/><rect class="cu-cell" x="10" y="560" width="10" height="10"/><rect class="cu-cell" x="10" y="570" width="10" height="10"/><rect class="cu-cell" x="10" y="580" width="10" height="10"/><rect class="cu-cell" x="10" y="590" width="10" height="10"/><rect class="cu-cell" x="10" y="600" width="10" height="10"/><rect class="cu-cell" x="10" y="610" width="10" height="10"/><rect class="cu-cell" x="10" y="620" width="10" height="10"/><rect class="cu-cell" x="10" y="630" width="10" height="10"/></g>
    <!-- Continuing for all 30 columns would be very long, so using a pattern approach -->
    <!-- For brevity, I'll create representative columns and note this is a grid pattern -->
  </g>

  <!-- Simplified approach: Create a pattern and use it -->
  <defs>
    <pattern id="cu-grid" x="0" y="0" width="10" height="10" patternUnits="userSpaceOnUse">
      <rect class="cu-cell" x="0" y="0" width="10" height="10"/>
    </pattern>
  </defs>

  <!-- Apply pattern to entire grid area -->
  <rect x="0" y="0" width="300" height="640" fill="url(#cu-grid)"/>

  <!-- Add time markers at bottom -->
  <g id="time-axis">
    <text class="time-label" x="5" y="650" text-anchor="middle">0s</text>
    <text class="time-label" x="75" y="650" text-anchor="middle">5s</text>
    <text class="time-label" x="145" y="650" text-anchor="middle">10s</text>
    <text class="time-label" x="215" y="650" text-anchor="middle">15s</text>
    <text class="time-label" x="285" y="650" text-anchor="middle">20s</text>
  </g>
</svg>
