<svg xmlns="http://www.w3.org/2000/svg" viewBox="0 0 326 166" width="326" height="166">
  <rect x="0" y="0" width="326" height="166" rx="6" ry="6" fill="#117865" stroke="#0D5A4C" stroke-width="1.5"/>
  <line x1="8.0" y1="3" x2="8.0" y2="163" stroke="#0D5A4C" stroke-width="1" opacity="0.6"/>
  <line x1="13.0" y1="3" x2="13.0" y2="163" stroke="#0D5A4C" stroke-width="1" opacity="0.6"/>
  <line x1="18.0" y1="3" x2="18.0" y2="163" stroke="#0D5A4C" stroke-width="1" opacity="0.6"/>
  <line x1="23.0" y1="3" x2="23.0" y2="163" stroke="#0D5A4C" stroke-width="1" opacity="0.6"/>
  <line x1="28.0" y1="3" x2="28.0" y2="163" stroke="#0D5A4C" stroke-width="1" opacity="0.6"/>
  <line x1="33.0" y1="3" x2="33.0" y2="163" stroke="#0D5A4C" stroke-width="1" opacity="0.6"/>
  <line x1="38.0" y1="3" x2="38.0" y2="163" stroke="#0D5A4C" stroke-width="1" opacity="0.6"/>
  <line x1="43.0" y1="3" x2="43.0" y2="163" stroke="#0D5A4C" stroke-width="1" opacity="0.6"/>
  <line x1="48.0" y1="3" x2="48.0" y2="163" stroke="#0D5A4C" stroke-width="1" opacity="0.6"/>
  <line x1="53.0" y1="3" x2="53.0" y2="163" stroke="#0D5A4C" stroke-width="1" opacity="0.6"/>
  <line x1="58.0" y1="3" x2="58.0" y2="163" stroke="#0D5A4C" stroke-width="1" opacity="0.6"/>
  <line x1="63.0" y1="3" x2="63.0" y2="163" stroke="#0D5A4C" stroke-width="1" opacity="0.6"/>
  <line x1="68.0" y1="3" x2="68.0" y2="163" stroke="#0D5A4C" stroke-width="1" opacity="0.6"/>
  <line x1="73.0" y1="3" x2="73.0" y2="163" stroke="#0D5A4C" stroke-width="1" opacity="0.6"/>
  <line x1="78.0" y1="3" x2="78.0" y2="163" stroke="#0D5A4C" stroke-width="1" opacity="0.6"/>
  <line x1="83.0" y1="3" x2="83.0" y2="163" stroke="#0D5A4C" stroke-width="1" opacity="0.6"/>
  <line x1="88.0" y1="3" x2="88.0" y2="163" stroke="#0D5A4C" stroke-width="1" opacity="0.6"/>
  <line x1="93.0" y1="3" x2="93.0" y2="163" stroke="#0D5A4C" stroke-width="1" opacity="0.6"/>
  <line x1="98.0" y1="3" x2="98.0" y2="163" stroke="#0D5A4C" stroke-width="1" opacity="0.6"/>
  <line x1="103.0" y1="3" x2="103.0" y2="163" stroke="#0D5A4C" stroke-width="1" opacity="0.6"/>
  <line x1="108.0" y1="3" x2="108.0" y2="163" stroke="#0D5A4C" stroke-width="1" opacity="0.6"/>
  <line x1="113.0" y1="3" x2="113.0" y2="163" stroke="#0D5A4C" stroke-width="1" opacity="0.6"/>
  <line x1="118.0" y1="3" x2="118.0" y2="163" stroke="#0D5A4C" stroke-width="1" opacity="0.6"/>
  <line x1="123.0" y1="3" x2="123.0" y2="163" stroke="#0D5A4C" stroke-width="1" opacity="0.6"/>
  <line x1="128.0" y1="3" x2="128.0" y2="163" stroke="#0D5A4C" stroke-width="1" opacity="0.6"/>
  <line x1="133.0" y1="3" x2="133.0" y2="163" stroke="#0D5A4C" stroke-width="1" opacity="0.6"/>
  <line x1="138.0" y1="3" x2="138.0" y2="163" stroke="#0D5A4C" stroke-width="1" opacity="0.6"/>
  <line x1="143.0" y1="3" x2="143.0" y2="163" stroke="#0D5A4C" stroke-width="1" opacity="0.6"/>
  <line x1="148.0" y1="3" x2="148.0" y2="163" stroke="#0D5A4C" stroke-width="1" opacity="0.6"/>
  <line x1="153.0" y1="3" x2="153.0" y2="163" stroke="#0D5A4C" stroke-width="1" opacity="0.6"/>
  <line x1="158.0" y1="3" x2="158.0" y2="163" stroke="#0D5A4C" stroke-width="1" opacity="0.6"/>
  <line x1="163.0" y1="3" x2="163.0" y2="163" stroke="#0D5A4C" stroke-width="1" opacity="0.6"/>
  <line x1="168.0" y1="3" x2="168.0" y2="163" stroke="#0D5A4C" stroke-width="1" opacity="0.6"/>
  <line x1="173.0" y1="3" x2="173.0" y2="163" stroke="#0D5A4C" stroke-width="1" opacity="0.6"/>
  <line x1="178.0" y1="3" x2="178.0" y2="163" stroke="#0D5A4C" stroke-width="1" opacity="0.6"/>
  <line x1="183.0" y1="3" x2="183.0" y2="163" stroke="#0D5A4C" stroke-width="1" opacity="0.6"/>
  <line x1="188.0" y1="3" x2="188.0" y2="163" stroke="#0D5A4C" stroke-width="1" opacity="0.6"/>
  <line x1="193.0" y1="3" x2="193.0" y2="163" stroke="#0D5A4C" stroke-width="1" opacity="0.6"/>
  <line x1="198.0" y1="3" x2="198.0" y2="163" stroke="#0D5A4C" stroke-width="1" opacity="0.6"/>
  <line x1="203.0" y1="3" x2="203.0" y2="163" stroke="#0D5A4C" stroke-width="1" opacity="0.6"/>
  <line x1="208.0" y1="3" x2="208.0" y2="163" stroke="#0D5A4C" stroke-width="1" opacity="0.6"/>
  <line x1="213.0" y1="3" x2="213.0" y2="163" stroke="#0D5A4C" stroke-width="1" opacity="0.6"/>
  <line x1="218.0" y1="3" x2="218.0" y2="163" stroke="#0D5A4C" stroke-width="1" opacity="0.6"/>
  <line x1="223.0" y1="3" x2="223.0" y2="163" stroke="#0D5A4C" stroke-width="1" opacity="0.6"/>
  <line x1="228.0" y1="3" x2="228.0" y2="163" stroke="#0D5A4C" stroke-width="1" opacity="0.6"/>
  <line x1="233.0" y1="3" x2="233.0" y2="163" stroke="#0D5A4C" stroke-width="1" opacity="0.6"/>
  <line x1="238.0" y1="3" x2="238.0" y2="163" stroke="#0D5A4C" stroke-width="1" opacity="0.6"/>
  <line x1="243.0" y1="3" x2="243.0" y2="163" stroke="#0D5A4C" stroke-width="1" opacity="0.6"/>
  <line x1="248.0" y1="3" x2="248.0" y2="163" stroke="#0D5A4C" stroke-width="1" opacity="0.6"/>
  <line x1="253.0" y1="3" x2="253.0" y2="163" stroke="#0D5A4C" stroke-width="1" opacity="0.6"/>
  <line x1="258.0" y1="3" x2="258.0" y2="163" stroke="#0D5A4C" stroke-width="1" opacity="0.6"/>
  <line x1="263.0" y1="3" x2="263.0" y2="163" stroke="#0D5A4C" stroke-width="1" opacity="0.6"/>
  <line x1="268.0" y1="3" x2="268.0" y2="163" stroke="#0D5A4C" stroke-width="1" opacity="0.6"/>
  <line x1="273.0" y1="3" x2="273.0" y2="163" stroke="#0D5A4C" stroke-width="1" opacity="0.6"/>
  <line x1="278.0" y1="3" x2="278.0" y2="163" stroke="#0D5A4C" stroke-width="1" opacity="0.6"/>
  <line x1="283.0" y1="3" x2="283.0" y2="163" stroke="#0D5A4C" stroke-width="1" opacity="0.6"/>
  <line x1="288.0" y1="3" x2="288.0" y2="163" stroke="#0D5A4C" stroke-width="1" opacity="0.6"/>
  <line x1="293.0" y1="3" x2="293.0" y2="163" stroke="#0D5A4C" stroke-width="1" opacity="0.6"/>
  <line x1="298.0" y1="3" x2="298.0" y2="163" stroke="#0D5A4C" stroke-width="1" opacity="0.6"/>
  <line x1="303.0" y1="3" x2="303.0" y2="163" stroke="#0D5A4C" stroke-width="1" opacity="0.6"/>
  <line x1="308.0" y1="3" x2="308.0" y2="163" stroke="#0D5A4C" stroke-width="1" opacity="0.6"/>
  <line x1="313.0" y1="3" x2="313.0" y2="163" stroke="#0D5A4C" stroke-width="1" opacity="0.6"/>
  <line x1="318.0" y1="3" x2="318.0" y2="163" stroke="#0D5A4C" stroke-width="1" opacity="0.6"/>
  <line x1="3" y1="8.0" x2="323" y2="8.0" stroke="#0D5A4C" stroke-width="1" opacity="0.6"/>
  <line x1="3" y1="13.0" x2="323" y2="13.0" stroke="#0D5A4C" stroke-width="1" opacity="0.6"/>
  <line x1="3" y1="18.0" x2="323" y2="18.0" stroke="#0D5A4C" stroke-width="1" opacity="0.6"/>
  <line x1="3" y1="23.0" x2="323" y2="23.0" stroke="#0D5A4C" stroke-width="1" opacity="0.6"/>
  <line x1="3" y1="28.0" x2="323" y2="28.0" stroke="#0D5A4C" stroke-width="1" opacity="0.6"/>
  <line x1="3" y1="33.0" x2="323" y2="33.0" stroke="#0D5A4C" stroke-width="1" opacity="0.6"/>
  <line x1="3" y1="38.0" x2="323" y2="38.0" stroke="#0D5A4C" stroke-width="1" opacity="0.6"/>
  <line x1="3" y1="43.0" x2="323" y2="43.0" stroke="#0D5A4C" stroke-width="1" opacity="0.6"/>
  <line x1="3" y1="48.0" x2="323" y2="48.0" stroke="#0D5A4C" stroke-width="1" opacity="0.6"/>
  <line x1="3" y1="53.0" x2="323" y2="53.0" stroke="#0D5A4C" stroke-width="1" opacity="0.6"/>
  <line x1="3" y1="58.0" x2="323" y2="58.0" stroke="#0D5A4C" stroke-width="1" opacity="0.6"/>
  <line x1="3" y1="63.0" x2="323" y2="63.0" stroke="#0D5A4C" stroke-width="1" opacity="0.6"/>
  <line x1="3" y1="68.0" x2="323" y2="68.0" stroke="#0D5A4C" stroke-width="1" opacity="0.6"/>
  <line x1="3" y1="73.0" x2="323" y2="73.0" stroke="#0D5A4C" stroke-width="1" opacity="0.6"/>
  <line x1="3" y1="78.0" x2="323" y2="78.0" stroke="#0D5A4C" stroke-width="1" opacity="0.6"/>
  <line x1="3" y1="83.0" x2="323" y2="83.0" stroke="#0D5A4C" stroke-width="1" opacity="0.6"/>
  <line x1="3" y1="88.0" x2="323" y2="88.0" stroke="#0D5A4C" stroke-width="1" opacity="0.6"/>
  <line x1="3" y1="93.0" x2="323" y2="93.0" stroke="#0D5A4C" stroke-width="1" opacity="0.6"/>
  <line x1="3" y1="98.0" x2="323" y2="98.0" stroke="#0D5A4C" stroke-width="1" opacity="0.6"/>
  <line x1="3" y1="103.0" x2="323" y2="103.0" stroke="#0D5A4C" stroke-width="1" opacity="0.6"/>
  <line x1="3" y1="108.0" x2="323" y2="108.0" stroke="#0D5A4C" stroke-width="1" opacity="0.6"/>
  <line x1="3" y1="113.0" x2="323" y2="113.0" stroke="#0D5A4C" stroke-width="1" opacity="0.6"/>
  <line x1="3" y1="118.0" x2="323" y2="118.0" stroke="#0D5A4C" stroke-width="1" opacity="0.6"/>
  <line x1="3" y1="123.0" x2="323" y2="123.0" stroke="#0D5A4C" stroke-width="1" opacity="0.6"/>
  <line x1="3" y1="128.0" x2="323" y2="128.0" stroke="#0D5A4C" stroke-width="1" opacity="0.6"/>
  <line x1="3" y1="133.0" x2="323" y2="133.0" stroke="#0D5A4C" stroke-width="1" opacity="0.6"/>
  <line x1="3" y1="138.0" x2="323" y2="138.0" stroke="#0D5A4C" stroke-width="1" opacity="0.6"/>
  <line x1="3" y1="143.0" x2="323" y2="143.0" stroke="#0D5A4C" stroke-width="1" opacity="0.6"/>
  <line x1="3" y1="148.0" x2="323" y2="148.0" stroke="#0D5A4C" stroke-width="1" opacity="0.6"/>
  <line x1="3" y1="153.0" x2="323" y2="153.0" stroke="#0D5A4C" stroke-width="1" opacity="0.6"/>
  <line x1="3" y1="158.0" x2="323" y2="158.0" stroke="#0D5A4C" stroke-width="1" opacity="0.6"/>
</svg>